<svg width="45" height="45" viewBox="0 0 45 45" fill="none" xmlns="http://www.w3.org/2000/svg">
<g clip-path="url(#clip0_30_240)">
<path d="M39.8801 4.77461L39.9589 4.99403L40.1777 5.07464L44.1855 6.55123L44.1902 6.5529C44.3548 6.61168 44.4912 6.79713 44.4912 6.99609C44.4912 7.17833 44.3622 7.36028 44.1902 7.42169L44.1859 7.42328L40.1693 8.89985L39.9504 8.9803L39.8714 9.19967L38.4212 13.2251L38.4211 13.225L38.4183 13.2332C38.3546 13.4202 38.1649 13.5537 37.9775 13.5537C37.7902 13.5537 37.6005 13.4202 37.5367 13.2332L37.5369 13.2332L37.5329 13.2223L36.0563 9.19695L35.9766 8.97969L35.7594 8.89985L31.7428 7.42328L31.7428 7.42326L31.7385 7.42171C31.5665 7.36028 31.4375 7.17833 31.4375 6.99609H31.4376L31.4374 6.98499C31.4335 6.81124 31.5577 6.62084 31.7434 6.5511C31.7439 6.55095 31.7443 6.55079 31.7447 6.55064L35.7848 5.07513L36.0046 4.99484L36.0838 4.77461L37.5232 0.770452C37.6113 0.609191 37.791 0.5 37.9775 0.5C38.1687 0.5 38.354 0.613092 38.4407 0.770698L39.8801 4.77461ZM28.3603 9.61723L29.2139 10.4708V10.462L35.3916 16.6397C36.2949 17.5431 36.2949 19.0107 35.3916 19.914L35.1367 20.1689L34.9125 20.3931L35.0197 20.6914C35.6947 22.5714 36.0625 24.606 36.0625 26.7188C36.0625 36.5412 28.1037 44.5 18.2812 44.5C8.45876 44.5 0.5 36.5412 0.5 26.7188C0.5 16.8963 8.45876 8.9375 18.2812 8.9375C20.394 8.9375 22.4279 9.30527 24.3067 9.98845L24.6059 10.0973L24.8311 9.87211L25.086 9.61723C25.9893 8.71385 27.4569 8.71385 28.3603 9.61723ZM8.9375 26.0156C8.9375 21.2468 12.8093 17.375 17.5781 17.375H18.2812C19.3308 17.375 20.1875 16.5183 20.1875 15.4688C20.1875 14.4192 19.3308 13.5625 18.2812 13.5625H17.5781C10.7014 13.5625 5.125 19.1389 5.125 26.0156V26.7188C5.125 27.7683 5.98167 28.625 7.03125 28.625C8.08083 28.625 8.9375 27.7683 8.9375 26.7188V26.0156Z" fill="#DC452C" stroke="#3B452A"/>
</g>
<defs>
<clipPath id="clip0_30_240">
<rect width="45" height="45" fill="white"/>
</clipPath>
</defs>
</svg>
