<svg width="17" height="17" viewBox="0 0 17 17" fill="none" xmlns="http://www.w3.org/2000/svg">
<path d="M2.25 1.70833V9.54166H6.8403C7.141 9.54166 7.29136 9.54166 7.41218 9.61634C7.53301 9.69101 7.60025 9.82549 7.73473 10.0944L8.22361 11.0722C8.35809 11.3412 8.42533 11.4756 8.54615 11.5503C8.66698 11.625 8.81733 11.625 9.11803 11.625H14.25C14.4857 11.625 14.6036 11.625 14.6768 11.5518C14.75 11.4785 14.75 11.3607 14.75 11.125V3.79166C14.75 3.55596 14.75 3.43811 14.6768 3.36488C14.6036 3.29166 14.4857 3.29166 14.25 3.29166H9.11803C8.81733 3.29166 8.66698 3.29166 8.54615 3.21699C8.42533 3.14231 8.35809 3.00783 8.22361 2.73888L7.73473 1.76111C7.60025 1.49216 7.53301 1.35768 7.41218 1.283C7.29136 1.20833 7.141 1.20833 6.8403 1.20833H2.75C2.5143 1.20833 2.39645 1.20833 2.32322 1.28155C2.25 1.35477 2.25 1.47263 2.25 1.70833Z" fill="#DC452C"/>
<path d="M2.25 9.54166V1.70833C2.25 1.47263 2.25 1.35477 2.32322 1.28155C2.39645 1.20833 2.5143 1.20833 2.75 1.20833H6.8403C7.141 1.20833 7.29136 1.20833 7.41218 1.283C7.53301 1.35768 7.60025 1.49216 7.73473 1.76111L8.22361 2.73888C8.35809 3.00783 8.42533 3.14231 8.54615 3.21699C8.66698 3.29166 8.81733 3.29166 9.11803 3.29166H14.25C14.4857 3.29166 14.6036 3.29166 14.6768 3.36488C14.75 3.43811 14.75 3.55596 14.75 3.79166V11.125C14.75 11.3607 14.75 11.4785 14.6768 11.5518C14.6036 11.625 14.4857 11.625 14.25 11.625H9.11803C8.81733 11.625 8.66698 11.625 8.54615 11.5503C8.42533 11.4756 8.35809 11.3412 8.22361 11.0722L7.73473 10.0944C7.60025 9.82549 7.53301 9.69101 7.41218 9.61634C7.29136 9.54166 7.141 9.54166 6.8403 9.54166H2.25ZM2.25 9.54166V15.7917" stroke="black" stroke-width="1.4" stroke-linecap="round"/>
</svg>
