<svg width="30" height="31" viewBox="0 0 30 31" fill="none" xmlns="http://www.w3.org/2000/svg">
<path fill-rule="evenodd" clip-rule="evenodd" d="M14.9255 7.01632C14.808 6.9361 14.8577 6.75 15 6.75C19.8325 6.75 23.75 10.6675 23.75 15.5C23.75 20.3325 19.8325 24.25 15 24.25C14.4848 24.25 13.98 24.2055 13.4892 24.1201C12.3525 23.9222 11.7842 23.8233 11.7377 23.457C11.6911 23.0907 12.3287 22.8022 13.604 22.225C16.6387 20.8515 18.75 17.797 18.75 14.2493C18.75 11.2435 17.2343 8.5916 14.9255 7.01632Z" fill="#3B452C"/>
<path d="M13.4892 24.1201L13.5921 23.5289L13.4892 24.1201ZM11.7377 23.457L12.3329 23.3814L11.7377 23.457ZM14.9255 7.01632L15.2637 6.52069L14.9255 7.01632ZM23.15 15.5C23.15 10.9989 19.5011 7.35 15 7.35V6.15C20.1639 6.15 24.35 10.3361 24.35 15.5H23.15ZM15 23.65C19.5011 23.65 23.15 20.0011 23.15 15.5H24.35C24.35 20.6639 20.1639 24.85 15 24.85V23.65ZM13.5921 23.5289C14.049 23.6085 14.5194 23.65 15 23.65V24.85C14.4502 24.85 13.9109 24.8025 13.3863 24.7112L13.5921 23.5289ZM13.3566 21.6784C16.1845 20.3985 18.15 17.5528 18.15 14.2493H19.35C19.35 18.0412 17.0928 21.3046 13.8514 22.7716L13.3566 21.6784ZM18.15 14.2493C18.15 11.4501 16.7393 8.98022 14.5874 7.51194L15.2637 6.52069C17.7293 8.20297 19.35 11.0368 19.35 14.2493H18.15ZM13.3863 24.7112C12.8388 24.6159 12.3592 24.534 12.0174 24.4217C11.7053 24.3192 11.2142 24.0974 11.1424 23.5326L12.3329 23.3814C12.3077 23.1829 12.124 23.1937 12.3918 23.2817C12.63 23.3599 13.0029 23.4264 13.5921 23.5289L13.3863 24.7112ZM13.8514 22.7716C13.1975 23.0676 12.7607 23.2665 12.4866 23.4329C12.3493 23.5163 12.3007 23.5639 12.2908 23.5758C12.2891 23.5778 12.3048 23.5597 12.3183 23.5213C12.3331 23.4793 12.339 23.43 12.3329 23.3814L11.1424 23.5326C11.1043 23.2326 11.2211 22.9846 11.3698 22.8065C11.5062 22.6432 11.688 22.514 11.8637 22.4072C12.2156 22.1936 12.7352 21.9596 13.3566 21.6784L13.8514 22.7716ZM15 7.35C15.2331 7.35 15.3973 7.18154 15.4439 7.01187C15.4888 6.8484 15.4389 6.64022 15.2637 6.52069L14.5874 7.51194C14.2946 7.3122 14.2108 6.97086 14.2867 6.69428C14.3643 6.41151 14.6246 6.15 15 6.15V7.35Z" fill="#222222"/>
<path d="M5.4 10.7L5.4 10.7C5.50137 11.0041 5.55206 11.1562 5.60276 11.2225C5.80288 11.4843 6.19712 11.4843 6.39724 11.2225C6.44794 11.1562 6.49863 11.0041 6.6 10.7L6.6 10.7C6.68177 10.4547 6.72266 10.332 6.77555 10.221C6.97291 9.80672 7.30672 9.47291 7.72099 9.27555C7.83201 9.22266 7.95468 9.18177 8.2 9.1L8.2 9.1C8.50412 8.99863 8.65618 8.94794 8.7225 8.89724C8.98431 8.69712 8.98431 8.30288 8.7225 8.10276C8.65618 8.05206 8.50412 8.00137 8.2 7.9L8.2 7.9C7.95468 7.81822 7.83201 7.77734 7.72099 7.72445C7.30672 7.52709 6.97291 7.19329 6.77555 6.77901C6.72266 6.66799 6.68177 6.54532 6.6 6.3C6.49863 5.99588 6.44794 5.84382 6.39724 5.7775C6.19712 5.51569 5.80288 5.51569 5.60276 5.7775C5.55206 5.84382 5.50137 5.99588 5.4 6.3C5.31823 6.54532 5.27734 6.66799 5.22445 6.77901C5.02709 7.19329 4.69329 7.52709 4.27901 7.72445C4.16799 7.77734 4.04532 7.81823 3.8 7.9C3.49588 8.00137 3.34382 8.05206 3.2775 8.10276C3.01569 8.30288 3.01569 8.69712 3.2775 8.89724C3.34382 8.94794 3.49588 8.99863 3.8 9.1C4.04532 9.18177 4.16799 9.22266 4.27901 9.27555C4.69329 9.47291 5.02709 9.80672 5.22445 10.221C5.27734 10.332 5.31822 10.4547 5.4 10.7Z" fill="#3B452C" stroke="#222222" stroke-width="1.2"/>
</svg>
