<svg width="35" height="35" viewBox="0 0 35 35" fill="none" xmlns="http://www.w3.org/2000/svg">
<path fill-rule="evenodd" clip-rule="evenodd" d="M20.5968 4.71766V4.71768L20.6533 5.28202C20.8166 6.91555 20.8983 7.73232 21.4511 7.96131C22.0039 8.19029 22.6392 7.6705 23.9098 6.63092L24.3488 6.2718C25.0145 5.72709 25.3474 5.45474 25.7322 5.47393C26.1171 5.49312 26.4212 5.79725 27.0294 6.4055L28.5945 7.9706C29.2028 8.57886 29.5069 8.88298 29.5261 9.26782C29.5453 9.65265 29.273 9.98553 28.7282 10.6513L28.3691 11.0903C27.3295 12.3609 26.8097 12.9962 27.0387 13.549C27.2677 14.1018 28.0845 14.1835 29.718 14.3468L30.2824 14.4033C31.1384 14.4888 31.5663 14.5316 31.8249 14.8173C32.0834 15.103 32.0834 15.5331 32.0834 16.3933V18.6067C32.0834 19.4669 32.0834 19.897 31.8249 20.1827C31.5663 20.4684 31.1384 20.5112 30.2824 20.5968H30.2824L29.7185 20.6532C28.085 20.8165 27.2682 20.8982 27.0393 21.451C26.8103 22.0038 27.3301 22.6391 28.3696 23.9097L28.7283 24.3481C29.273 25.0139 29.5454 25.3467 29.5262 25.7316C29.507 26.1164 29.2029 26.4205 28.5946 27.0288L27.0295 28.5939C26.4213 29.2021 26.1171 29.5063 25.7323 29.5255C25.3475 29.5447 25.0146 29.2723 24.3488 28.7276L23.9099 28.3685C22.6393 27.3289 22.004 26.8091 21.4512 27.0381C20.8984 27.2671 20.8167 28.0838 20.6533 29.7174L20.5968 30.2824V30.2824C20.5113 31.1383 20.4685 31.5663 20.1828 31.8248C19.8971 32.0834 19.467 32.0834 18.6068 32.0834H16.3934C15.5332 32.0834 15.1031 32.0834 14.8174 31.8248C14.5317 31.5663 14.4889 31.1383 14.4033 30.2824L14.3469 29.7179C14.1835 28.0844 14.1018 27.2676 13.549 27.0387C12.9962 26.8097 12.3609 27.3295 11.0903 28.369L10.6513 28.7283C9.98553 29.273 9.65265 29.5453 9.26781 29.5261C8.88298 29.5069 8.57885 29.2028 7.9706 28.5945L6.4055 27.0295C5.79725 26.4212 5.49312 26.1171 5.47392 25.7322C5.45473 25.3474 5.72709 25.0145 6.2718 24.3488L6.63098 23.9098C7.67055 22.6392 8.19034 22.0039 7.96136 21.4511C7.73237 20.8983 6.9156 20.8166 5.28207 20.6532L4.71774 20.5968H4.71772C3.8618 20.5112 3.43384 20.4684 3.1753 20.1827C2.91675 19.897 2.91675 19.4669 2.91675 18.6067L2.91675 16.3933C2.91675 15.5331 2.91675 15.103 3.1753 14.8173C3.43384 14.5316 3.86181 14.4888 4.71774 14.4033L5.28262 14.3468C6.91615 14.1834 7.73292 14.1017 7.96191 13.5489C8.19089 12.9961 7.6711 12.3608 6.63152 11.0902L6.27186 10.6506C5.72715 9.98487 5.4548 9.65199 5.47399 9.26716C5.49319 8.88232 5.79731 8.5782 6.40557 7.96994L7.97066 6.40485L7.97067 6.40484C8.57892 5.79659 8.88305 5.49246 9.26788 5.47327C9.65272 5.45408 9.9856 5.72643 10.6514 6.27114L11.0904 6.63035C12.361 7.66993 12.9963 8.18972 13.5491 7.96074C14.1019 7.73175 14.1836 6.91498 14.3469 5.28145L14.4033 4.71768C14.4889 3.86175 14.5317 3.43378 14.8174 3.17523C15.1031 2.91669 15.5332 2.91669 16.3934 2.91669H18.6068C19.467 2.91669 19.8971 2.91669 20.1828 3.17523C20.4685 3.43378 20.5113 3.86174 20.5968 4.71766ZM17.5001 23.3334C20.7217 23.3334 23.3334 20.7217 23.3334 17.5C23.3334 14.2784 20.7217 11.6667 17.5001 11.6667C14.2784 11.6667 11.6667 14.2784 11.6667 17.5C11.6667 20.7217 14.2784 23.3334 17.5001 23.3334Z" fill="#EDE696"/>
<path d="M20.5968 4.71768H20.0968V4.74262L20.0993 4.76743L20.5968 4.71768ZM20.5968 4.71766H21.0968V4.69272L21.0944 4.66791L20.5968 4.71766ZM20.6533 5.28202L20.1558 5.33177V5.33177L20.6533 5.28202ZM23.9098 6.63092L23.5932 6.24395V6.24395L23.9098 6.63092ZM24.3488 6.2718L24.6654 6.65878V6.65878L24.3488 6.2718ZM25.7322 5.47393L25.7571 4.97455L25.7322 5.47393ZM27.0294 6.4055L26.6759 6.75906L27.0294 6.4055ZM28.5945 7.9706L28.241 8.32415L28.5945 7.9706ZM29.5261 9.26782L30.0255 9.24291V9.24291L29.5261 9.26782ZM28.7282 10.6513L29.1152 10.9679V10.9679L28.7282 10.6513ZM28.3691 11.0903L27.9821 10.7736L27.9821 10.7736L28.3691 11.0903ZM29.718 14.3468L29.6682 14.8443L29.718 14.3468ZM30.2824 14.4033L30.3322 13.9057L30.2824 14.4033ZM31.8249 14.8173L32.1956 14.4818L32.1956 14.4818L31.8249 14.8173ZM31.8249 20.1827L32.1956 20.5182V20.5182L31.8249 20.1827ZM30.2824 20.5968V21.0968H30.3074L30.3322 21.0943L30.2824 20.5968ZM30.2824 20.5968V20.0968H30.2575L30.2327 20.0993L30.2824 20.5968ZM29.7185 20.6532L29.6688 20.1557H29.6688L29.7185 20.6532ZM28.3696 23.9097L28.7566 23.5931L28.3696 23.9097ZM28.7283 24.3481L29.1153 24.0315L28.7283 24.3481ZM28.5946 27.0288L28.9482 27.3823V27.3823L28.5946 27.0288ZM27.0295 28.5939L26.676 28.2403L27.0295 28.5939ZM25.7323 29.5255L25.7572 30.0248H25.7572L25.7323 29.5255ZM24.3488 28.7276L24.0322 29.1146L24.3488 28.7276ZM23.9099 28.3685L24.2265 27.9815V27.9815L23.9099 28.3685ZM21.4512 27.0381L21.2598 26.5761H21.2598L21.4512 27.0381ZM20.6533 29.7174L20.1558 29.6676V29.6676L20.6533 29.7174ZM20.5968 30.2824L20.0993 30.2326L20.0968 30.2574V30.2824H20.5968ZM20.5968 30.2824L21.0944 30.3321L21.0968 30.3073V30.2824H20.5968ZM20.1828 31.8248L20.5183 32.1955H20.5183L20.1828 31.8248ZM14.8174 31.8248L14.4819 32.1955L14.4819 32.1955L14.8174 31.8248ZM14.4033 30.2824L13.9058 30.3321L14.4033 30.2824ZM14.3469 29.7179L13.8494 29.7677L14.3469 29.7179ZM11.0903 28.369L10.7737 27.9821H10.7737L11.0903 28.369ZM10.6513 28.7283L10.9679 29.1152L10.6513 28.7283ZM7.9706 28.5945L8.32415 28.241H8.32415L7.9706 28.5945ZM6.4055 27.0295L6.75905 26.6759H6.75905L6.4055 27.0295ZM5.47392 25.7322L4.97455 25.7571L5.47392 25.7322ZM6.2718 24.3488L6.65878 24.6654H6.65878L6.2718 24.3488ZM6.63098 23.9098L6.244 23.5931L6.244 23.5931L6.63098 23.9098ZM7.96136 21.4511L7.49942 21.6424H7.49942L7.96136 21.4511ZM5.28207 20.6532L5.33182 20.1557H5.33182L5.28207 20.6532ZM4.71774 20.5968L4.76749 20.0993L4.74268 20.0968H4.71774V20.5968ZM4.71772 20.5968L4.66797 21.0943L4.69279 21.0968H4.71772V20.5968ZM3.1753 20.1827L3.54602 19.8472H3.54602L3.1753 20.1827ZM2.91675 18.6067H3.41675H2.91675ZM2.91675 16.3933H3.41675H2.91675ZM3.1753 14.8173L2.80457 14.4818L2.80457 14.4818L3.1753 14.8173ZM4.71774 14.4033L4.76749 14.9008H4.76749L4.71774 14.4033ZM5.28262 14.3468L5.23287 13.8492H5.23287L5.28262 14.3468ZM6.63152 11.0902L7.0185 10.7736L6.63152 11.0902ZM6.27186 10.6506L5.88489 10.9672L6.27186 10.6506ZM6.40557 7.96994L6.05201 7.61639L6.40557 7.96994ZM7.97066 6.40485L7.61711 6.05129L7.97066 6.40485ZM7.97067 6.40484L7.61711 6.05129L7.61711 6.05129L7.97067 6.40484ZM9.26788 5.47327L9.24297 4.97389L9.26788 5.47327ZM10.6514 6.27114L10.3347 6.65812L10.3347 6.65812L10.6514 6.27114ZM11.0904 6.63035L11.407 6.24338V6.24337L11.0904 6.63035ZM14.3469 5.28145L13.8494 5.23169V5.23169L14.3469 5.28145ZM14.4033 4.71768L14.9008 4.76743V4.76743L14.4033 4.71768ZM14.8174 3.17523L14.4819 2.80451V2.80451L14.8174 3.17523ZM20.1828 3.17523L19.8473 3.54596L20.1828 3.17523ZM21.0968 4.71768V4.71766H20.0968V4.71768H21.0968ZM21.1508 5.23226L21.0944 4.66793L20.0993 4.76743L20.1558 5.33177L21.1508 5.23226ZM21.6425 7.49937C21.5912 7.47813 21.4896 7.41822 21.391 7.02638C21.2923 6.63384 21.2342 6.06593 21.1508 5.23226L20.1558 5.33177C20.2357 6.13163 20.3001 6.78889 20.4213 7.27036C20.5426 7.75253 20.7582 8.2155 21.2598 8.42325L21.6425 7.49937ZM23.5932 6.24395C22.9448 6.77449 22.5021 7.13496 22.1547 7.3427C21.8079 7.55007 21.6937 7.5206 21.6425 7.49937L21.2598 8.42325C21.7613 8.631 22.2412 8.45613 22.6679 8.20095C23.094 7.94615 23.6043 7.52694 24.2264 7.0179L23.5932 6.24395ZM24.0321 5.88482L23.5932 6.24395L24.2264 7.0179L24.6654 6.65878L24.0321 5.88482ZM25.7571 4.97455C25.4235 4.95791 25.1416 5.0748 24.8813 5.23713C24.6331 5.3919 24.3547 5.62093 24.0321 5.88482L24.6654 6.65878C25.0086 6.37796 25.2295 6.19846 25.4104 6.08568C25.5792 5.98045 25.6561 5.97075 25.7073 5.97331L25.7571 4.97455ZM27.383 6.05195C27.0883 5.75728 26.8341 5.50168 26.6025 5.32297C26.3596 5.13555 26.0907 4.99119 25.7571 4.97455L25.7073 5.97331C25.7586 5.97587 25.8341 5.99317 25.9916 6.11467C26.1603 6.24488 26.3623 6.44548 26.6759 6.75906L27.383 6.05195ZM28.9481 7.61705L27.383 6.05195L26.6759 6.75906L28.241 8.32415L28.9481 7.61705ZM30.0255 9.24291C30.0089 8.90932 29.8645 8.64042 29.6771 8.39753C29.4984 8.16594 29.2428 7.91172 28.9481 7.61705L28.241 8.32415C28.5546 8.63773 28.7552 8.8397 28.8854 9.00845C29.0069 9.1659 29.0242 9.24148 29.0267 9.29273L30.0255 9.24291ZM29.1152 10.9679C29.3791 10.6454 29.6081 10.367 29.7629 10.1188C29.9253 9.85843 30.0421 9.5765 30.0255 9.24291L29.0267 9.29273C29.0293 9.34397 29.0196 9.4209 28.9144 9.58965C28.8016 9.77052 28.6221 9.99145 28.3413 10.3347L29.1152 10.9679ZM28.7561 11.4069L29.1152 10.9679L28.3413 10.3347L27.9821 10.7736L28.7561 11.4069ZM27.5006 13.3576C27.4794 13.3064 27.4499 13.1922 27.6573 12.8454C27.8651 12.498 28.2255 12.0553 28.7561 11.4069L27.9821 10.7736C27.4731 11.3958 27.0539 11.9061 26.7991 12.3322C26.5439 12.7589 26.369 13.2388 26.5768 13.7403L27.5006 13.3576ZM29.7677 13.8493C28.9341 13.7659 28.3662 13.7078 27.9736 13.609C27.5818 13.5105 27.5219 13.4089 27.5006 13.3576L26.5768 13.7403C26.7845 14.2419 27.2475 14.4575 27.7297 14.5788C28.2111 14.7 28.8684 14.7643 29.6682 14.8443L29.7677 13.8493ZM30.3322 13.9057L29.7677 13.8493L29.6682 14.8443L30.2327 14.9008L30.3322 13.9057ZM32.1956 14.4818C31.9715 14.2342 31.6895 14.1175 31.3906 14.0482C31.1056 13.9821 30.7468 13.9472 30.3322 13.9057L30.2327 14.9008C30.6739 14.9449 30.9571 14.9742 31.1647 15.0223C31.3585 15.0673 31.4197 15.1148 31.4541 15.1528L32.1956 14.4818ZM32.5834 16.3933C32.5834 15.9766 32.5844 15.6161 32.547 15.326C32.5078 15.0217 32.4197 14.7295 32.1956 14.4818L31.4541 15.1528C31.4886 15.1909 31.5298 15.2566 31.5552 15.4538C31.5824 15.6652 31.5834 15.9499 31.5834 16.3933H32.5834ZM32.5834 18.6067V16.3933H31.5834V18.6067H32.5834ZM32.1956 20.5182C32.4197 20.2706 32.5078 19.9783 32.547 19.6741C32.5844 19.3839 32.5834 19.0234 32.5834 18.6067H31.5834C31.5834 19.0502 31.5824 19.3348 31.5552 19.5462C31.5298 19.7435 31.4886 19.8092 31.4541 19.8472L32.1956 20.5182ZM30.3322 21.0943C30.7469 21.0528 31.1056 21.0179 31.3906 20.9519C31.6895 20.8826 31.9715 20.7659 32.1956 20.5182L31.4541 19.8472C31.4197 19.8852 31.3585 19.9328 31.1647 19.9777C30.9571 20.0258 30.6739 20.0551 30.2327 20.0993L30.3322 21.0943ZM30.2824 21.0968H30.2824V20.0968H30.2824V21.0968ZM29.7683 21.1507L30.3322 21.0943L30.2327 20.0993L29.6688 20.1557L29.7683 21.1507ZM27.5012 21.6424C27.5224 21.5911 27.5823 21.4895 27.9742 21.3909C28.3667 21.2922 28.9346 21.2341 29.7683 21.1507L29.6688 20.1557C28.8689 20.2356 28.2117 20.3 27.7302 20.4212C27.248 20.5425 26.7851 20.7581 26.5773 21.2597L27.5012 21.6424ZM28.7566 23.5931C28.2261 22.9447 27.8656 22.502 27.6579 22.1546C27.4505 21.8078 27.48 21.6936 27.5012 21.6424L26.5773 21.2597C26.3696 21.7612 26.5444 22.2411 26.7996 22.6678C27.0544 23.0939 27.4736 23.6042 27.9827 24.2263L28.7566 23.5931ZM29.1153 24.0315L28.7566 23.5931L27.9827 24.2263L28.3413 24.6647L29.1153 24.0315ZM30.0256 25.7565C30.0422 25.4229 29.9253 25.141 29.763 24.8806C29.6082 24.6324 29.3792 24.354 29.1153 24.0315L28.3413 24.6647C28.6222 25.0079 28.8017 25.2289 28.9144 25.4097C29.0197 25.5785 29.0294 25.6554 29.0268 25.7067L30.0256 25.7565ZM28.9482 27.3823C29.2428 27.0877 29.4984 26.8335 29.6771 26.6019C29.8646 26.359 30.0089 26.0901 30.0256 25.7565L29.0268 25.7067C29.0243 25.7579 29.0069 25.8335 28.8855 25.9909C28.7552 26.1597 28.5546 26.3617 28.2411 26.6752L28.9482 27.3823ZM27.3831 28.9474L28.9482 27.3823L28.2411 26.6752L26.676 28.2403L27.3831 28.9474ZM25.7572 30.0248C26.0908 30.0082 26.3597 29.8638 26.6026 29.6764C26.8342 29.4977 27.0884 29.2421 27.3831 28.9474L26.676 28.2403C26.3624 28.5539 26.1604 28.7545 25.9917 28.8847C25.8342 29.0062 25.7586 29.0235 25.7074 29.0261L25.7572 30.0248ZM24.0322 29.1146C24.3547 29.3785 24.6331 29.6075 24.8813 29.7623C25.1417 29.9246 25.4236 30.0415 25.7572 30.0248L25.7074 29.0261C25.6561 29.0286 25.5792 29.0189 25.4105 28.9137C25.2296 28.8009 25.0087 28.6214 24.6654 28.3406L24.0322 29.1146ZM23.5933 28.7554L24.0322 29.1146L24.6654 28.3406L24.2265 27.9815L23.5933 28.7554ZM21.6425 27.5C21.6938 27.4788 21.808 27.4493 22.1548 27.6567C22.5022 27.8644 22.9448 28.2249 23.5933 28.7554L24.2265 27.9815C23.6044 27.4725 23.0941 27.0532 22.668 26.7984C22.2413 26.5433 21.7614 26.3684 21.2598 26.5761L21.6425 27.5ZM21.1509 29.7671C21.2342 28.9335 21.2924 28.3656 21.3911 27.973C21.4897 27.5812 21.5913 27.5213 21.6425 27.5L21.2598 26.5761C20.7583 26.7839 20.5426 27.2469 20.4213 27.729C20.3002 28.2105 20.2358 28.8678 20.1558 29.6676L21.1509 29.7671ZM21.0944 30.3321L21.1509 29.7671L20.1558 29.6676L20.0993 30.2326L21.0944 30.3321ZM21.0968 30.2824V30.2824H20.0968V30.2824H21.0968ZM20.5183 32.1955C20.7659 31.9714 20.8826 31.6894 20.9519 31.3905C21.018 31.1056 21.0529 30.7468 21.0944 30.3321L20.0993 30.2326C20.0552 30.6739 20.0259 30.957 19.9778 31.1647C19.9328 31.3584 19.8853 31.4196 19.8473 31.4541L20.5183 32.1955ZM18.6068 32.5834C19.0235 32.5834 19.384 32.5843 19.6741 32.5469C19.9784 32.5077 20.2706 32.4196 20.5183 32.1955L19.8473 31.4541C19.8092 31.4885 19.7435 31.5297 19.5463 31.5551C19.3349 31.5824 19.0502 31.5834 18.6068 31.5834V32.5834ZM16.3934 32.5834H18.6068V31.5834H16.3934V32.5834ZM14.4819 32.1955C14.7295 32.4196 15.0218 32.5077 15.326 32.5469C15.6162 32.5843 15.9767 32.5834 16.3934 32.5834V31.5834C15.9499 31.5834 15.6653 31.5824 15.4539 31.5551C15.2566 31.5297 15.1909 31.4885 15.1529 31.4541L14.4819 32.1955ZM13.9058 30.3321C13.9473 30.7468 13.9822 31.1056 14.0482 31.3905C14.1175 31.6894 14.2342 31.9714 14.4819 32.1955L15.1529 31.4541C15.1149 31.4196 15.0673 31.3584 15.0224 31.1647C14.9743 30.957 14.945 30.6739 14.9008 30.2326L13.9058 30.3321ZM13.8494 29.7677L13.9058 30.3321L14.9008 30.2326L14.8444 29.6682L13.8494 29.7677ZM13.3577 27.5006C13.4089 27.5218 13.5105 27.5817 13.6091 27.9736C13.7079 28.3661 13.766 28.934 13.8494 29.7677L14.8444 29.6682C14.7644 28.8683 14.7 28.2111 14.5789 27.7296C14.4576 27.2474 14.2419 26.7845 13.7404 26.5767L13.3577 27.5006ZM11.4069 28.756C12.0554 28.2255 12.4981 27.865 12.8455 27.6573C13.1922 27.4499 13.3064 27.4794 13.3577 27.5006L13.7404 26.5767C13.2388 26.369 12.759 26.5438 12.3322 26.799C11.9061 27.0538 11.3959 27.473 10.7737 27.9821L11.4069 28.756ZM10.9679 29.1152L11.4069 28.756L10.7737 27.9821L10.3347 28.3413L10.9679 29.1152ZM9.24291 30.0255C9.57649 30.0421 9.85843 29.9253 10.1188 29.7629C10.367 29.6082 10.6454 29.3791 10.9679 29.1152L10.3347 28.3413C9.99144 28.6221 9.77051 28.8016 9.58965 28.9144C9.42089 29.0196 9.34397 29.0293 9.29272 29.0267L9.24291 30.0255ZM7.61704 28.9481C7.91172 29.2428 8.16594 29.4984 8.39753 29.6771C8.64041 29.8645 8.90932 30.0089 9.24291 30.0255L9.29272 29.0267C9.24147 29.0242 9.16589 29.0069 9.00845 28.8854C8.8397 28.7552 8.63773 28.5546 8.32415 28.241L7.61704 28.9481ZM6.05195 27.383L7.61704 28.9481L8.32415 28.241L6.75905 26.6759L6.05195 27.383ZM4.97455 25.7571C4.99118 26.0907 5.13554 26.3596 5.32297 26.6025C5.50168 26.8341 5.75727 27.0883 6.05195 27.383L6.75905 26.6759C6.44547 26.3623 6.24488 26.1604 6.11466 25.9916C5.99316 25.8342 5.97586 25.7586 5.9733 25.7073L4.97455 25.7571ZM5.88482 24.0321C5.62093 24.3547 5.3919 24.6331 5.23712 24.8813C5.07479 25.1416 4.95791 25.4236 4.97455 25.7571L5.9733 25.7073C5.97075 25.6561 5.98044 25.5792 6.08567 25.4104C6.19845 25.2295 6.37796 25.0086 6.65878 24.6654L5.88482 24.0321ZM6.244 23.5931L5.88482 24.0321L6.65878 24.6654L7.01796 24.2264L6.244 23.5931ZM7.49942 21.6424C7.52065 21.6937 7.55012 21.8079 7.34275 22.1546C7.13501 22.502 6.77454 22.9447 6.244 23.5931L7.01795 24.2264C7.52699 23.6042 7.9462 23.094 8.201 22.6679C8.45618 22.2411 8.63105 21.7613 8.4233 21.2597L7.49942 21.6424ZM5.23232 21.1507C6.06599 21.2341 6.63389 21.2922 7.02643 21.391C7.41827 21.4896 7.47818 21.5911 7.49942 21.6424L8.4233 21.2597C8.21555 20.7582 7.75258 20.5425 7.27041 20.4212C6.78894 20.3001 6.13169 20.2357 5.33182 20.1557L5.23232 21.1507ZM4.66799 21.0943L5.23232 21.1507L5.33182 20.1557L4.76749 20.0993L4.66799 21.0943ZM4.71772 21.0968H4.71774V20.0968H4.71772V21.0968ZM2.80457 20.5182C3.02868 20.7659 3.31069 20.8826 3.60955 20.9519C3.89451 21.0179 4.25331 21.0528 4.66797 21.0943L4.76748 20.0993C4.32622 20.0551 4.04307 20.0258 3.83543 19.9777C3.6417 19.9328 3.58045 19.8852 3.54602 19.8472L2.80457 20.5182ZM2.41675 18.6067C2.41675 19.0234 2.41578 19.3839 2.45317 19.6741C2.49238 19.9783 2.58045 20.2706 2.80457 20.5182L3.54602 19.8472C3.51159 19.8092 3.47039 19.7435 3.44496 19.5462C3.41772 19.3348 3.41675 19.0502 3.41675 18.6067H2.41675ZM2.41675 16.3933L2.41675 18.6067H3.41675L3.41675 16.3933H2.41675ZM2.80457 14.4818C2.58045 14.7295 2.49238 15.0217 2.45317 15.326C2.41578 15.6161 2.41675 15.9766 2.41675 16.3933H3.41675C3.41675 15.9499 3.41772 15.6652 3.44497 15.4538C3.47039 15.2566 3.51159 15.1909 3.54602 15.1528L2.80457 14.4818ZM4.66799 13.9057C4.25332 13.9472 3.89452 13.9821 3.60956 14.0482C3.31069 14.1175 3.02869 14.2342 2.80457 14.4818L3.54602 15.1528C3.58045 15.1148 3.6417 15.0673 3.83544 15.0223C4.04308 14.9742 4.32623 14.9449 4.76749 14.9008L4.66799 13.9057ZM5.23287 13.8492L4.66799 13.9057L4.76749 14.9008L5.33237 14.8443L5.23287 13.8492ZM7.49997 13.3576C7.47873 13.4088 7.41882 13.5104 7.02698 13.609C6.63444 13.7078 6.06654 13.7659 5.23287 13.8492L5.33237 14.8443C6.13224 14.7643 6.78949 14.6999 7.27096 14.5788C7.75313 14.4575 8.21609 14.2418 8.42385 13.7403L7.49997 13.3576ZM6.24455 11.4068C6.77509 12.0553 7.13556 12.4979 7.3433 12.8453C7.55066 13.1921 7.5212 13.3063 7.49997 13.3576L8.42385 13.7403C8.6316 13.2387 8.45673 12.7588 8.20155 12.3321C7.94675 11.906 7.52753 11.3957 7.0185 10.7736L6.24455 11.4068ZM5.88489 10.9672L6.24455 11.4068L7.0185 10.7736L6.65884 10.334L5.88489 10.9672ZM4.97461 9.24225C4.95797 9.57584 5.07486 9.85777 5.23719 10.1181C5.39197 10.3663 5.62099 10.6447 5.88489 10.9672L6.65884 10.334C6.37802 9.99079 6.19852 9.76986 6.08574 9.58899C5.98051 9.42024 5.97081 9.34331 5.97337 9.29207L4.97461 9.24225ZM6.05201 7.61639C5.75734 7.91106 5.50174 8.16528 5.32304 8.39687C5.13561 8.63976 4.99125 8.90866 4.97461 9.24225L5.97337 9.29207C5.97593 9.24082 5.99323 9.16524 6.11473 9.00779C6.24494 8.83905 6.44554 8.63708 6.75912 8.3235L6.05201 7.61639ZM7.61711 6.05129L6.05201 7.61639L6.75912 8.3235L8.32422 6.7584L7.61711 6.05129ZM7.61711 6.05129L7.61711 6.05129L8.32422 6.7584L8.32422 6.7584L7.61711 6.05129ZM9.24297 4.97389C8.90939 4.99053 8.64048 5.13489 8.39759 5.32231C8.16601 5.50102 7.91179 5.75662 7.61711 6.05129L8.32422 6.7584C8.6378 6.44482 8.83977 6.24422 9.00852 6.11401C9.16596 5.99251 9.24154 5.9752 9.29279 5.97265L9.24297 4.97389ZM10.968 5.88416C10.6454 5.62027 10.367 5.39124 10.1188 5.23647C9.85849 5.07414 9.57656 4.95725 9.24297 4.97389L9.29279 5.97265C9.34403 5.97009 9.42096 5.97979 9.58971 6.08502C9.77058 6.1978 9.99151 6.3773 10.3347 6.65812L10.968 5.88416ZM11.407 6.24337L10.968 5.88416L10.3347 6.65812L10.7738 7.01733L11.407 6.24337ZM13.3578 7.4988C13.3065 7.52003 13.1923 7.54949 12.8455 7.34213C12.4981 7.13439 12.0555 6.77392 11.407 6.24338L10.7738 7.01733C11.3959 7.52636 11.9062 7.94558 12.3323 8.20038C12.759 8.45556 13.2389 8.63043 13.7404 8.42268L13.3578 7.4988ZM13.8494 5.23169C13.7661 6.06537 13.7079 6.63327 13.6092 7.02581C13.5106 7.41765 13.409 7.47756 13.3578 7.4988L13.7404 8.42268C14.242 8.21492 14.4577 7.75196 14.579 7.26979C14.7001 6.78832 14.7645 6.13106 14.8445 5.3312L13.8494 5.23169ZM13.9058 4.66793L13.8494 5.23169L14.8445 5.3312L14.9008 4.76743L13.9058 4.66793ZM14.4819 2.80451C14.2342 3.02863 14.1175 3.31063 14.0482 3.6095C13.9822 3.89446 13.9473 4.25326 13.9058 4.66793L14.9008 4.76743C14.945 4.32616 14.9743 4.04302 15.0224 3.83538C15.0673 3.64164 15.1149 3.58039 15.1529 3.54596L14.4819 2.80451ZM16.3934 2.41669C15.9767 2.41669 15.6162 2.41572 15.326 2.45311C15.0218 2.49232 14.7295 2.58039 14.4819 2.80451L15.1529 3.54596C15.1909 3.51153 15.2566 3.47032 15.4539 3.4449C15.6653 3.41766 15.9499 3.41669 16.3934 3.41669V2.41669ZM18.6068 2.41669H16.3934V3.41669H18.6068V2.41669ZM20.5183 2.80451C20.2706 2.58039 19.9784 2.49232 19.6741 2.45311C19.384 2.41572 19.0235 2.41669 18.6068 2.41669V3.41669C19.0502 3.41669 19.3349 3.41766 19.5463 3.4449C19.7435 3.47032 19.8092 3.51153 19.8473 3.54596L20.5183 2.80451ZM21.0944 4.66791C21.0529 4.25325 21.018 3.89445 20.9519 3.60949C20.8826 3.31063 20.7659 3.02862 20.5183 2.80451L19.8473 3.54596C19.8853 3.58039 19.9328 3.64164 19.9778 3.83537C20.0259 4.04301 20.0552 4.32615 20.0993 4.76741L21.0944 4.66791ZM22.8334 17.5C22.8334 20.4455 20.4456 22.8334 17.5001 22.8334V23.8334C20.9979 23.8334 23.8334 20.9978 23.8334 17.5H22.8334ZM17.5001 12.1667C20.4456 12.1667 22.8334 14.5545 22.8334 17.5H23.8334C23.8334 14.0022 20.9979 11.1667 17.5001 11.1667V12.1667ZM12.1667 17.5C12.1667 14.5545 14.5546 12.1667 17.5001 12.1667V11.1667C14.0023 11.1667 11.1667 14.0022 11.1667 17.5H12.1667ZM17.5001 22.8334C14.5546 22.8334 12.1667 20.4455 12.1667 17.5H11.1667C11.1667 20.9978 14.0023 23.8334 17.5001 23.8334V22.8334Z" fill="#EDE696"/>
</svg>
