<svg width="30" height="31" viewBox="0 0 30 31" fill="none" xmlns="http://www.w3.org/2000/svg">
<path d="M3.94797 17.9133C3.05672 16.4279 3.05672 14.5721 3.94797 13.0867C4.21995 12.6334 4.67052 12.3159 5.18887 12.2122L7.30516 11.789C7.43124 11.7638 7.54489 11.6961 7.6272 11.5974L10.9208 7.64498C12.1034 6.22592 12.6947 5.51638 13.2223 5.70742C13.75 5.89846 13.75 6.82207 13.75 8.66928L13.75 22.3307C13.75 24.1779 13.75 25.1015 13.2223 25.2926C12.6947 25.4836 12.1034 24.7741 10.9208 23.355L7.6272 19.4026C7.54489 19.3039 7.43124 19.2362 7.30516 19.211L5.18887 18.7878C4.67052 18.6841 4.21995 18.3666 3.94797 17.9133Z" fill="white" stroke="#EDE696"/>
<path d="M19.4194 11.0806C20.5855 12.2467 21.2435 13.8263 21.25 15.4754C21.2564 17.1244 20.6109 18.7092 19.4541 19.8845" stroke="#EDE696" stroke-linecap="round"/>
<path d="M24.5711 8.42893C26.4368 10.2946 27.4895 12.8221 27.4999 15.4606C27.5103 18.0991 26.4775 20.6348 24.6266 22.5151" stroke="#EDE696" stroke-linecap="round"/>
</svg>
