<svg width="26" height="35" viewBox="0 0 26 35" fill="none" xmlns="http://www.w3.org/2000/svg">
<path d="M9.23645 6.6522C9.23645 8.95399 9.22956 10.7091 8.7288 12.0608C8.25436 13.3416 7.31658 14.2969 5.28129 14.9128C4.30604 15.2079 3.61302 15.1004 3.09772 14.7871C2.56477 14.4631 2.13841 13.8688 1.81265 13.0315C1.15724 11.3469 1 8.92097 1 6.6522C1 4.43246 1.42537 2.89746 2.16251 1.92656C2.88006 0.981468 3.94806 0.5 5.42611 0.5C6.89627 0.5 7.7894 0.97342 8.35486 1.8873C8.95525 2.85763 9.23645 4.39964 9.23645 6.6522ZM3.04205 20.0198C2.95994 19.3115 2.92738 18.8256 2.95563 18.4774C2.98302 18.1397 3.0624 18.0006 3.14652 17.9185C3.24687 17.8206 3.43513 17.7236 3.84197 17.6337C4.21362 17.5515 4.69266 17.4894 5.33425 17.4062C5.38829 17.3992 5.44348 17.392 5.49985 17.3847C5.55656 17.3773 5.61219 17.37 5.66676 17.3629C6.30956 17.2791 6.80664 17.2143 7.21133 17.1957C7.65422 17.1754 7.90661 17.2165 8.06824 17.2956C8.20406 17.3621 8.33133 17.4829 8.44926 17.7811C8.57383 18.0961 8.66926 18.5636 8.75038 19.2634C8.91249 20.6617 8.88731 21.8568 8.5294 22.7285C8.35486 23.1535 8.10338 23.496 7.75546 23.7539C7.40593 24.0129 6.93266 24.206 6.28639 24.2901C5.63896 24.3743 5.16076 24.3045 4.79877 24.1466C4.44031 23.9901 4.15621 23.73 3.92307 23.3639C3.43835 22.6026 3.20687 21.4415 3.04205 20.0198ZM20.7862 25.0873C19.7717 24.7761 19.0427 24.3797 18.511 23.9123C17.983 23.448 17.6285 22.8951 17.3879 22.2368C16.8934 20.8839 16.8867 19.1276 16.8867 16.8261C16.8867 14.5731 17.1642 13.0298 17.7571 12.0587C18.3148 11.1451 19.1937 10.6739 20.6396 10.6739C22.0938 10.6739 23.145 11.1536 23.8524 12.0979C24.58 13.0692 25 14.6053 25 16.8261C25 19.095 24.8449 21.522 24.1978 23.2076C23.876 24.0459 23.4552 24.6396 22.9309 24.9626C22.4255 25.274 21.7456 25.3815 20.7862 25.0873ZM20.5001 27.5586C20.5565 27.566 20.6117 27.5731 20.6657 27.5801C21.3073 27.6633 21.7864 27.7254 22.158 27.8076C22.5649 27.8976 22.7531 27.9946 22.8535 28.0925C22.9376 28.1745 23.017 28.3137 23.0444 28.6513C23.0726 28.9996 23.0401 29.4854 22.958 30.1937C22.7931 31.6154 22.5617 32.7765 22.0769 33.5378C21.8438 33.904 21.5597 34.1641 21.2012 34.3205C20.8392 34.4785 20.361 34.5482 19.7136 34.464C19.0673 34.38 18.5941 34.1869 18.2445 33.9278C17.8966 33.67 17.6451 33.3275 17.4706 32.9024C17.1127 32.0307 17.0875 30.8357 17.2496 29.4373C17.3307 28.7376 17.4262 28.2701 17.5507 27.9551C17.6687 27.6568 17.7959 27.5361 17.9318 27.4696C18.0934 27.3905 18.3458 27.3493 18.7887 27.3697C19.1934 27.3882 19.6905 27.453 20.3333 27.5369C20.3878 27.544 20.4434 27.5512 20.5001 27.5586Z" fill="#B7A71E" stroke="#3B452A"/>
</svg>
